#!OML:ASF G:\JayActor3\Patient Classification 1\Patient 1\Session 6\male.ASF
:FULLY-SPECIFIED
:DEGREES
886
root -1.54595 16.2345 -21.3315 172.939 -31.6739 -174.028
lowerback -2.49605 -0.52972 1.16886
upperback 5.68421 -0.96267 -0.133065
thorax 7.30807 -0.482939 -0.888433
lowerneck 1.69719 0.453093 2.91987
upperneck 21.5268 -1.42679 1.58474
head 6.25652 -0.982466 -0.124753
rclavicle 2.24627e-014 -1.27222e-014
rhumerus 18.4073 31.5126 -37.7814
rradius 134.031
rwrist -52.5079
rhand -36.4504 -28.1421
rfingers 7.12502
rthumb -9.54438 -57.906
lclavicle 2.24627e-014 -1.27222e-014
lhumerus -32.1439 7.46975 79.7904
lradius 26.4348
lwrist 17.2559
lhand -17.0487 11.1824
lfingers 7.12502
lthumb 9.1883 40.9622
rfemur -14.2961 9.87655 17.8221
rtibia 35.8797
rfoot -17.1083 -10.9538
rtoes -1.74464
lfemur -1.35819 13.326 -18.7567
ltibia 27.0466
lfoot -23.8735 16.4779
ltoes -0.97724
887
root -1.54743 16.2349 -21.3336 172.926 -31.7363 -174.012
lowerback -2.52743 -0.52176 1.16558
upperback 5.68028 -0.950649 -0.14243
thorax 7.32228 -0.476388 -0.895743
lowerneck 1.75059 0.405886 2.90141
upperneck 21.223 -1.44742 1.6176
head 6.14992 -0.983148 -0.108684
rclavicle -2.48481e-015 -1.35174e-014
rhumerus 18.5056 31.2746 -37.7015
rradius 133.952
rwrist -52.1832
rhand -36.4659 -27.9664
rfingers 7.12502
rthumb -9.55939 -57.7295
lclavicle -2.48481e-015 -1.35174e-014
lhumerus -32.1012 7.43555 79.7815
lradius 26.4005
lwrist 17.2515
lhand -17.0628 11.176
lfingers 7.12502
lthumb 9.17473 40.9564
rfemur -14.2543 9.84498 17.8288
rtibia 35.852
rfoot -17.1294 -10.9673
rtoes -1.71131
lfemur -1.35274 13.2769 -18.7528
ltibia 27.046
lfoot -23.8729 16.4771
ltoes -0.986451
888
root -1.54893 16.235 -21.3357 172.915 -31.7942 -174.003
lowerback -2.55637 -0.509905 1.16117
upperback 5.67785 -0.9332 -0.155664
thorax 7.33676 -0.467157 -0.905966
lowerneck 1.81077 0.354454 2.87846
upperneck 20.8984 -1.47341 1.66317
head 6.03592 -0.985757 -0.0879056
rclavicle 3.12092e-014 -7.15625e-015
rhumerus 18.5933 31.0227 -37.6289
rradius 133.87
rwrist -51.8336
rhand -36.5222 -27.8542
rfingers 7.12502
rthumb -9.61365 -57.6149
lclavicle 3.12092e-014 -7.15625e-015
lhumerus -32.0515 7.40132 79.7693
lradius 26.3654
lwrist 17.247
lhand -17.0753 11.166
lfingers 7.12502
lthumb 9.16267 40.9469
rfemur -14.2133 9.81347 17.8301
rtibia 35.8304
rfoot -17.1524 -10.9767
rtoes -1.68645
lfemur -1.34143 13.2341 -18.7534
ltibia 27.0433
lfoot -23.8742 16.4749
ltoes -0.993859
889
root -1.55031 16.235 -21.3379 172.904 -31.8464 -173.996
lowerback -2.58201 -0.494501 1.15913
upperback 5.67601 -0.911055 -0.171013
thorax 7.35003 -0.455458 -0.919266
lowerneck 1.88024 0.299019 2.85378
upperneck 20.5506 -1.50286 1.71411
head 5.9134 -0.989709 -0.0650998
rclavicle -3.48867e-014 2.38542e-015
rhumerus 18.6718 30.7574 -37.5629
rradius 133.786
rwrist -51.4646
rhand -36.5777 -27.7583
rfingers 7.12502
rthumb -9.66726 -57.5165
lclavicle -3.48867e-014 2.38542e-015
lhumerus -31.9988 7.36572 79.7554
lradius 26.3357
lwrist 17.2445
lhand -17.0791 11.163
lfingers 7.12502
lthumb 9.15901 40.9441
rfemur -14.1747 9.78418 17.8306
rtibia 35.8149
rfoot -17.1769 -10.9834
rtoes -1.6383
lfemur -1.32688 13.1975 -18.7537
ltibia 27.0392
lfoot -23.8756 16.4695
ltoes -0.993755
890
root -1.55155 16.2348 -21.34 172.89 -31.8927 -173.988
lowerback -2.6031 -0.47582 1.16179
upperback 5.67345 -0.884757 -0.186486
thorax 7.35991 -0.441486 -0.93487
lowerneck 1.95355 0.23919 2.82924
upperneck 20.188 -1.53657 1.76511
head 5.78599 -0.995698 -0.0424109
rclavicle 5.13858e-014 -3.33958e-014
rhumerus 18.7452 30.4781 -37.5005
rradius 133.698
rwrist -51.0848
rhand -36.6289 -27.6659
rfingers 7.12502
rthumb -9.71662 -57.4217
lclavicle 5.13858e-014 -3.33958e-014
lhumerus -31.9471 7.32969 79.7414
lradius 26.313
lwrist 17.2421
lhand -17.0788 11.1592
lfingers 7.12502
lthumb 9.15934 40.9403
rfemur -14.1386 9.75869 17.8342
rtibia 35.8043
rfoot -17.2021 -10.99
rtoes -1.60445
lfemur -1.31077 13.1669 -18.7506
ltibia 27.0353
lfoot -23.878 16.4631
ltoes -0.994634
891
root -1.55267 16.2344 -21.3422 172.879 -31.9356 -173.986
lowerback -2.61844 -0.45473 1.16217
upperback 5.66975 -0.854864 -0.204118
thorax 7.36533 -0.42585 -0.95103
lowerneck 2.02999 0.174424 2.80105
upperneck 19.8122 -1.57598 1.81926
head 5.65435 -1.00458 -0.0182922
rclavicle 4.28381e-014 2.38542e-015
rhumerus 18.8181 30.1898 -37.4432
rradius 133.605
rwrist -50.6907
rhand -36.6781 -27.5703
rfingers 7.12502
rthumb -9.76405 -57.3239
lclavicle 4.28381e-014 2.38542e-015
lhumerus -31.8985 7.28896 79.7281
lradius 26.2988
lwrist 17.2416
lhand -17.0711 11.1586
lfingers 7.12502
lthumb 9.16677 40.9393
rfemur -14.1046 9.73359 17.8334
rtibia 35.7986
rfoot -17.2269 -10.9953
rtoes -1.55637
lfemur -1.29297 13.1414 -18.7513
ltibia 27.0321
lfoot -23.8803 16.4566
ltoes -0.999108
892
root -1.5536 16.2341 -21.3444 172.866 -31.9719 -173.98
lowerback -2.62842 -0.432746 1.16549
upperback 5.66266 -0.823912 -0.21871
thorax 7.36403 -0.409636 -0.965436
lowerneck 2.11196 0.107026 2.76289
upperneck 19.426 -1.61817 1.87628
head 5.519 -1.01557 0.00833962
rclavicle -1.20265e-014 1.35174e-014
rhumerus 18.8977 29.9007 -37.3858
rradius 133.506
rwrist -50.2847
rhand -36.7266 -27.4743
rfingers 7.12502
rthumb -9.81091 -57.2257
lclavicle -1.20265e-014 1.35174e-014
lhumerus -31.8601 7.25217 79.7163
lradius 26.298
lwrist 17.243
lhand -17.066 11.158
lfingers 7.12502
lthumb 9.17169 40.9386
rfemur -14.0753 9.71535 17.8391
rtibia 35.7964
rfoot -17.2543 -11.0013
rtoes -1.49862
lfemur -1.27702 13.1233 -18.7457
ltibia 27.0305
lfoot -23.8803 16.4508
ltoes -1.01499
893
root -1.55434 16.2338 -21.3466 172.853 -32.0047 -173.974
lowerback -2.63061 -0.411248 1.16616
upperback 5.65251 -0.793331 -0.231759
thorax 7.35497 -0.39385 -0.976621
lowerneck 2.19659 0.0372143 2.71545
upperneck 19.0336 -1.66356 1.93638
head 5.38181 -1.02884 0.0373589
rclavicle -2.08724e-015 -5.56597e-015
rhumerus 18.9823 29.6144 -37.3256
rradius 133.407
rwrist -49.8804
rhand -36.7795 -27.3752
rfingers 7.12502
rthumb -9.86191 -57.1243
lclavicle -2.08724e-015 -5.56597e-015
lhumerus -31.8312 7.21551 79.7058
lradius 26.307
lwrist 17.2469
lhand -17.0596 11.1515
lfingers 7.12502
lthumb 9.1778 40.9318
rfemur -14.0482 9.69998 17.8462
rtibia 35.7974
rfoot -17.2786 -11.012
rtoes -1.45278
lfemur -1.26145 13.1112 -18.7389
ltibia 27.0306
lfoot -23.8749 16.4479
ltoes -1.05576
894
root -1.55491 16.2336 -21.3489 172.842 -32.0343 -173.97
lowerback -2.62993 -0.390054 1.16548
upperback 5.64027 -0.763003 -0.243652
thorax 7.34202 -0.378304 -0.985807
lowerneck 2.27571 -0.033571 2.66358
upperneck 18.6403 -1.71021 1.99587
head 5.24575 -1.04316 0.0668021
rclavicle -2.04748e-014 2.14687e-014
rhumerus 19.0759 29.3268 -37.2646
rradius 133.308
rwrist -49.4869
rhand -36.8261 -27.2745
rfingers 7.12502
rthumb -9.90683 -57.0214
lclavicle -2.04748e-014 2.14687e-014
lhumerus -31.811 7.17695 79.6975
lradius 26.3287
lwrist 17.2572
lhand -17.0572 11.1443
lfingers 7.12502
lthumb 9.18012 40.9245
rfemur -14.0253 9.68736 17.8542
rtibia 35.7994
rfoot -17.3008 -11.0258
rtoes -1.41788
lfemur -1.24963 13.1039 -18.731
ltibia 27.0346
lfoot -23.8685 16.4454
ltoes -1.10917
895
root -1.55519 16.2334 -21.3512 172.83 -32.0604 -173.961
lowerback -2.62656 -0.370287 1.16589
upperback 5.6263 -0.734756 -0.25233
thorax 7.32564 -0.363835 -0.992372
lowerneck 2.35473 -0.104535 2.60978
upperneck 18.2397 -1.75582 2.0512
head 5.10792 -1.05744 0.0953138
rclavicle 7.35503e-015 -9.54166e-015
rhumerus 19.182 29.0391 -37.1993
rradius 133.211
rwrist -49.115
rhand -36.869 -27.1763
rfingers 7.12502
rthumb -9.94829 -56.9212
lclavicle 7.35503e-015 -9.54166e-015
lhumerus -31.7975 7.14068 79.6916
lradius 26.3611
lwrist 17.2732
lhand -17.0593 11.1445
lfingers 7.12502
lthumb 9.17815 40.9248
rfemur -14.0071 9.67886 17.8679
rtibia 35.8013
rfoot -17.3184 -11.0446
rtoes -1.38373
lfemur -1.2432 13.1005 -18.7177
ltibia 27.0426
lfoot -23.8618 16.4404
ltoes -1.16632
896
root -1.55534 16.2333 -21.3534 172.817 -32.0856 -173.947
lowerback -2.62219 -0.336263 1.18481
upperback 5.61545 -0.687976 -0.273532
thorax 7.31224 -0.338831 -1.02081
lowerneck 2.42727 -0.189355 2.59361
upperneck 17.8251 -1.81932 2.10347
head 4.96719 -1.07803 0.116015
rclavicle 7.44449e-014 -1.90833e-014
rhumerus 19.2447 28.7088 -37.1551
rradius 133.124
rwrist -48.7726
rhand -36.9107 -27.0819
rfingers 7.12502
rthumb -9.9885 -56.8249
lclavicle 7.44449e-014 -1.90833e-014
lhumerus -31.768 7.04797 79.685
lradius 26.3985
lwrist 17.2976
lhand -17.0639 11.1441
lfingers 7.12502
lthumb 9.17368 40.9246
rfemur -13.9902 9.66922 17.8861
rtibia 35.8016
rfoot -17.3328 -11.0639
rtoes -1.39566
lfemur -1.24078 13.0972 -18.6999
ltibia 27.0558
lfoot -23.8557 16.4351
ltoes -1.22367
